<svg width="24" height="24" viewBox="0 0 24 24" fill="none" xmlns="http://www.w3.org/2000/svg">
    <g clip-path="url(#clip0_1288_37142)">
        <path d="M18.1398 16.27C17.1498 16.09 16.2498 15.62 15.5298 14.9C14.8198 14.19 14.3398 13.27 14.1498 12.28C14.0198 11.57 14.0498 10.83 14.2298 10.13C14.2598 10.03 14.2598 9.93002 14.2298 9.83002C14.1898 9.73002 14.1398 9.64001 14.0598 9.57001C13.9898 9.50001 13.8898 9.46 13.7898 9.44C13.6898 9.42 13.5798 9.43997 13.4898 9.46997C12.2998 9.88997 11.2798 10.72 10.6098 11.8C9.93978 12.88 9.64978 14.17 9.78978 15.44C9.92978 16.71 10.4998 17.9 11.3898 18.8C12.2898 19.71 13.4498 20.28 14.7098 20.42C15.9898 20.63 17.2998 20.4 18.4398 19.76C19.5798 19.12 20.4598 18.11 20.9598 16.9C20.9998 16.8 21.0098 16.7 20.9898 16.6C20.9698 16.5 20.9198 16.4 20.8598 16.33C20.7898 16.25 20.6998 16.2 20.5998 16.17C20.5098 16.14 20.3898 16.15 20.2998 16.17C19.5898 16.35 18.8498 16.38 18.1398 16.25V16.27Z" stroke="white" stroke-width="1.5" stroke-miterlimit="10"/>
        <path d="M6.94006 15.4H6.52005C5.67005 15.35 4.87006 15.01 4.23006 14.44C3.61006 13.87 3.19006 13.1 3.05006 12.25C2.91006 11.41 3.05006 10.54 3.47006 9.78998C3.89006 9.03998 4.54006 8.46001 5.33006 8.14001" stroke="white" stroke-width="1.5" stroke-miterlimit="10" stroke-linecap="round"/>
        <path d="M8.89986 8.78003C8.23986 8.24003 7.40987 7.94 6.54987 7.94C6.13987 7.94 5.73986 8.01002 5.35986 8.15002C5.65986 6.83002 6.38986 5.65 7.42986 4.81C8.46986 3.97 9.76986 3.51001 11.1099 3.51001C12.4499 3.51001 13.7499 3.97 14.7899 4.81C15.8299 5.65 16.5599 6.83002 16.8599 8.15002" stroke="white" stroke-width="1.5" stroke-miterlimit="10" stroke-linecap="round"/>
    </g>
    <defs>
        <clipPath id="clip0_1288_37142">
            <rect width="24" height="24" fill="white"/>
        </clipPath>
    </defs>
</svg>
